<mxfile host="app.diagrams.net" modified="2023-05-23T11:13:07.681Z" agent="Mozilla/5.0 (Windows NT 10.0; Win64; x64) AppleWebKit/537.36 (KHTML, like Gecko) Chrome/112.0.0.0 Safari/537.36 OPR/98.0.0.0" etag="7VFPLe-WtUw8bkJWoXZH" version="21.3.2" type="device">
  <diagram name="Page-1" id="aWHcUA_9HyNbqUjiHKVb">
    <mxGraphModel dx="3520" dy="2535" grid="1" gridSize="10" guides="1" tooltips="1" connect="1" arrows="1" fold="1" page="1" pageScale="1" pageWidth="850" pageHeight="1100" math="0" shadow="0">
      <root>
        <mxCell id="0" />
        <mxCell id="1" parent="0" />
        <mxCell id="aR87jSdfgTAc_3G9qlga-1" value="" style="ellipse;html=1;shape=startState;fillColor=#000000;strokeColor=#ff0000;" vertex="1" parent="1">
          <mxGeometry x="327.5" y="-110" width="30" height="30" as="geometry" />
        </mxCell>
        <mxCell id="aR87jSdfgTAc_3G9qlga-2" value="" style="edgeStyle=orthogonalEdgeStyle;html=1;verticalAlign=bottom;endArrow=open;endSize=8;strokeColor=#ff0000;rounded=0;" edge="1" source="aR87jSdfgTAc_3G9qlga-1" parent="1">
          <mxGeometry relative="1" as="geometry">
            <mxPoint x="342.5" y="-20" as="targetPoint" />
          </mxGeometry>
        </mxCell>
        <mxCell id="aR87jSdfgTAc_3G9qlga-76" style="edgeStyle=orthogonalEdgeStyle;rounded=0;orthogonalLoop=1;jettySize=auto;html=1;entryX=0.5;entryY=0;entryDx=0;entryDy=0;" edge="1" parent="1" source="aR87jSdfgTAc_3G9qlga-3" target="aR87jSdfgTAc_3G9qlga-75">
          <mxGeometry relative="1" as="geometry" />
        </mxCell>
        <mxCell id="aR87jSdfgTAc_3G9qlga-3" value="Spēles Bērniem.exe" style="rounded=1;whiteSpace=wrap;html=1;" vertex="1" parent="1">
          <mxGeometry x="282.5" y="-20" width="120" height="60" as="geometry" />
        </mxCell>
        <mxCell id="aR87jSdfgTAc_3G9qlga-4" value="" style="endArrow=none;html=1;rounded=0;strokeWidth=4;" edge="1" parent="1">
          <mxGeometry width="50" height="50" relative="1" as="geometry">
            <mxPoint x="2130" y="320" as="sourcePoint" />
            <mxPoint x="-80" y="320" as="targetPoint" />
          </mxGeometry>
        </mxCell>
        <mxCell id="aR87jSdfgTAc_3G9qlga-12" value="" style="edgeStyle=orthogonalEdgeStyle;rounded=0;orthogonalLoop=1;jettySize=auto;html=1;" edge="1" parent="1" source="aR87jSdfgTAc_3G9qlga-6">
          <mxGeometry relative="1" as="geometry">
            <mxPoint x="-80" y="510" as="targetPoint" />
          </mxGeometry>
        </mxCell>
        <mxCell id="aR87jSdfgTAc_3G9qlga-6" value="MainaRotacija" style="rounded=1;whiteSpace=wrap;html=1;" vertex="1" parent="1">
          <mxGeometry x="-140" y="380" width="120" height="60" as="geometry" />
        </mxCell>
        <mxCell id="aR87jSdfgTAc_3G9qlga-8" value="" style="endArrow=classic;html=1;rounded=0;entryX=0.5;entryY=0;entryDx=0;entryDy=0;" edge="1" parent="1" target="aR87jSdfgTAc_3G9qlga-6">
          <mxGeometry width="50" height="50" relative="1" as="geometry">
            <mxPoint x="-80" y="320" as="sourcePoint" />
            <mxPoint x="500" y="420" as="targetPoint" />
            <Array as="points" />
          </mxGeometry>
        </mxCell>
        <mxCell id="aR87jSdfgTAc_3G9qlga-18" value="" style="edgeStyle=orthogonalEdgeStyle;rounded=0;orthogonalLoop=1;jettySize=auto;html=1;" edge="1" parent="1" source="aR87jSdfgTAc_3G9qlga-14" target="aR87jSdfgTAc_3G9qlga-17">
          <mxGeometry relative="1" as="geometry">
            <Array as="points">
              <mxPoint x="-80" y="630" />
              <mxPoint x="-80" y="630" />
            </Array>
          </mxGeometry>
        </mxCell>
        <mxCell id="aR87jSdfgTAc_3G9qlga-38" style="edgeStyle=orthogonalEdgeStyle;rounded=0;orthogonalLoop=1;jettySize=auto;html=1;entryX=0.5;entryY=0;entryDx=0;entryDy=0;" edge="1" parent="1" source="aR87jSdfgTAc_3G9qlga-14" target="aR87jSdfgTAc_3G9qlga-35">
          <mxGeometry relative="1" as="geometry">
            <Array as="points">
              <mxPoint x="-230" y="550" />
            </Array>
          </mxGeometry>
        </mxCell>
        <mxCell id="aR87jSdfgTAc_3G9qlga-14" value="RotM==Key(z)" style="rhombus;whiteSpace=wrap;html=1;" vertex="1" parent="1">
          <mxGeometry x="-160" y="510" width="160" height="80" as="geometry" />
        </mxCell>
        <mxCell id="aR87jSdfgTAc_3G9qlga-42" style="edgeStyle=orthogonalEdgeStyle;rounded=0;orthogonalLoop=1;jettySize=auto;html=1;" edge="1" parent="1" source="aR87jSdfgTAc_3G9qlga-17">
          <mxGeometry relative="1" as="geometry">
            <mxPoint x="-90" y="320" as="targetPoint" />
            <Array as="points">
              <mxPoint x="-80" y="800" />
              <mxPoint x="-440" y="800" />
              <mxPoint x="-440" y="320" />
            </Array>
          </mxGeometry>
        </mxCell>
        <mxCell id="aR87jSdfgTAc_3G9qlga-17" value="pa kreisi" style="rounded=1;whiteSpace=wrap;html=1;" vertex="1" parent="1">
          <mxGeometry x="-140" y="690" width="120" height="60" as="geometry" />
        </mxCell>
        <mxCell id="aR87jSdfgTAc_3G9qlga-20" value="Ja" style="text;html=1;align=center;verticalAlign=middle;resizable=0;points=[];autosize=1;strokeColor=none;fillColor=none;" vertex="1" parent="1">
          <mxGeometry x="-80" y="610" width="40" height="30" as="geometry" />
        </mxCell>
        <mxCell id="aR87jSdfgTAc_3G9qlga-23" value="Ne" style="text;html=1;align=center;verticalAlign=middle;resizable=0;points=[];autosize=1;strokeColor=none;fillColor=none;" vertex="1" parent="1">
          <mxGeometry x="-200" y="510" width="40" height="30" as="geometry" />
        </mxCell>
        <mxCell id="aR87jSdfgTAc_3G9qlga-40" value="" style="edgeStyle=orthogonalEdgeStyle;rounded=0;orthogonalLoop=1;jettySize=auto;html=1;" edge="1" parent="1" source="aR87jSdfgTAc_3G9qlga-35" target="aR87jSdfgTAc_3G9qlga-36">
          <mxGeometry relative="1" as="geometry" />
        </mxCell>
        <mxCell id="aR87jSdfgTAc_3G9qlga-43" style="edgeStyle=orthogonalEdgeStyle;rounded=0;orthogonalLoop=1;jettySize=auto;html=1;" edge="1" parent="1" source="aR87jSdfgTAc_3G9qlga-35">
          <mxGeometry relative="1" as="geometry">
            <mxPoint x="-90" y="320" as="targetPoint" />
            <Array as="points">
              <mxPoint x="-440" y="620" />
            </Array>
          </mxGeometry>
        </mxCell>
        <mxCell id="aR87jSdfgTAc_3G9qlga-35" value="RotP==Key(x)" style="rhombus;whiteSpace=wrap;html=1;" vertex="1" parent="1">
          <mxGeometry x="-300" y="580" width="140" height="80" as="geometry" />
        </mxCell>
        <mxCell id="aR87jSdfgTAc_3G9qlga-44" style="edgeStyle=orthogonalEdgeStyle;rounded=0;orthogonalLoop=1;jettySize=auto;html=1;" edge="1" parent="1" source="aR87jSdfgTAc_3G9qlga-36">
          <mxGeometry relative="1" as="geometry">
            <mxPoint x="-90" y="320" as="targetPoint" />
            <Array as="points">
              <mxPoint x="-440" y="720" />
              <mxPoint x="-440" y="320" />
            </Array>
          </mxGeometry>
        </mxCell>
        <mxCell id="aR87jSdfgTAc_3G9qlga-36" value="pa labi" style="rounded=1;whiteSpace=wrap;html=1;" vertex="1" parent="1">
          <mxGeometry x="-290" y="690" width="120" height="60" as="geometry" />
        </mxCell>
        <mxCell id="aR87jSdfgTAc_3G9qlga-41" value="Ja" style="text;html=1;align=center;verticalAlign=middle;resizable=0;points=[];autosize=1;strokeColor=none;fillColor=none;" vertex="1" parent="1">
          <mxGeometry x="-240" y="648" width="40" height="30" as="geometry" />
        </mxCell>
        <mxCell id="aR87jSdfgTAc_3G9qlga-45" value="Ne" style="text;html=1;align=center;verticalAlign=middle;resizable=0;points=[];autosize=1;strokeColor=none;fillColor=none;" vertex="1" parent="1">
          <mxGeometry x="-330" y="590" width="40" height="30" as="geometry" />
        </mxCell>
        <mxCell id="aR87jSdfgTAc_3G9qlga-61" value="" style="edgeStyle=orthogonalEdgeStyle;rounded=0;orthogonalLoop=1;jettySize=auto;html=1;" edge="1" parent="1" source="aR87jSdfgTAc_3G9qlga-46" target="aR87jSdfgTAc_3G9qlga-48">
          <mxGeometry relative="1" as="geometry" />
        </mxCell>
        <mxCell id="aR87jSdfgTAc_3G9qlga-46" value="MainaPlatums" style="rounded=1;whiteSpace=wrap;html=1;" vertex="1" parent="1">
          <mxGeometry x="212.5" y="370" width="120" height="60" as="geometry" />
        </mxCell>
        <mxCell id="aR87jSdfgTAc_3G9qlga-67" style="edgeStyle=orthogonalEdgeStyle;rounded=0;orthogonalLoop=1;jettySize=auto;html=1;" edge="1" parent="1" source="aR87jSdfgTAc_3G9qlga-47">
          <mxGeometry relative="1" as="geometry">
            <mxPoint x="125" y="670" as="targetPoint" />
          </mxGeometry>
        </mxCell>
        <mxCell id="aR87jSdfgTAc_3G9qlga-70" style="edgeStyle=orthogonalEdgeStyle;rounded=0;orthogonalLoop=1;jettySize=auto;html=1;" edge="1" parent="1" source="aR87jSdfgTAc_3G9qlga-47">
          <mxGeometry relative="1" as="geometry">
            <mxPoint x="-90" y="320" as="targetPoint" />
            <Array as="points">
              <mxPoint x="30" y="580" />
              <mxPoint x="30" y="800" />
              <mxPoint x="-440" y="800" />
              <mxPoint x="-440" y="320" />
            </Array>
          </mxGeometry>
        </mxCell>
        <mxCell id="aR87jSdfgTAc_3G9qlga-47" value="PlatumsP==&lt;br&gt;Key(RightArrow)" style="rhombus;whiteSpace=wrap;html=1;" vertex="1" parent="1">
          <mxGeometry x="55" y="540" width="140" height="80" as="geometry" />
        </mxCell>
        <mxCell id="aR87jSdfgTAc_3G9qlga-62" style="edgeStyle=orthogonalEdgeStyle;rounded=0;orthogonalLoop=1;jettySize=auto;html=1;entryX=0.5;entryY=0;entryDx=0;entryDy=0;" edge="1" parent="1" source="aR87jSdfgTAc_3G9qlga-48" target="aR87jSdfgTAc_3G9qlga-47">
          <mxGeometry relative="1" as="geometry" />
        </mxCell>
        <mxCell id="aR87jSdfgTAc_3G9qlga-64" style="edgeStyle=orthogonalEdgeStyle;rounded=0;orthogonalLoop=1;jettySize=auto;html=1;" edge="1" parent="1" source="aR87jSdfgTAc_3G9qlga-48">
          <mxGeometry relative="1" as="geometry">
            <mxPoint x="365" y="630" as="targetPoint" />
          </mxGeometry>
        </mxCell>
        <mxCell id="aR87jSdfgTAc_3G9qlga-48" value="PlatumsM==&lt;br&gt;Key(LeftArrow)" style="rhombus;whiteSpace=wrap;html=1;" vertex="1" parent="1">
          <mxGeometry x="207.5" y="470" width="130" height="80" as="geometry" />
        </mxCell>
        <mxCell id="aR87jSdfgTAc_3G9qlga-54" style="edgeStyle=orthogonalEdgeStyle;rounded=0;orthogonalLoop=1;jettySize=auto;html=1;" edge="1" parent="1" source="aR87jSdfgTAc_3G9qlga-53">
          <mxGeometry relative="1" as="geometry">
            <mxPoint x="342.5" y="320" as="targetPoint" />
          </mxGeometry>
        </mxCell>
        <mxCell id="aR87jSdfgTAc_3G9qlga-53" value="Masina==LMBClick" style="rhombus;whiteSpace=wrap;html=1;" vertex="1" parent="1">
          <mxGeometry x="280" y="190" width="125" height="80" as="geometry" />
        </mxCell>
        <mxCell id="aR87jSdfgTAc_3G9qlga-55" value="Ja" style="text;html=1;align=center;verticalAlign=middle;resizable=0;points=[];autosize=1;strokeColor=none;fillColor=none;" vertex="1" parent="1">
          <mxGeometry x="340" y="278" width="40" height="30" as="geometry" />
        </mxCell>
        <mxCell id="aR87jSdfgTAc_3G9qlga-59" value="" style="endArrow=classic;html=1;rounded=0;exitX=0;exitY=0.5;exitDx=0;exitDy=0;" edge="1" parent="1" source="aR87jSdfgTAc_3G9qlga-53">
          <mxGeometry width="50" height="50" relative="1" as="geometry">
            <mxPoint x="250" y="220" as="sourcePoint" />
            <mxPoint x="340" y="170" as="targetPoint" />
            <Array as="points">
              <mxPoint x="270" y="230" />
              <mxPoint x="270" y="200" />
              <mxPoint x="270" y="170" />
            </Array>
          </mxGeometry>
        </mxCell>
        <mxCell id="aR87jSdfgTAc_3G9qlga-60" value="Ne" style="text;html=1;align=center;verticalAlign=middle;resizable=0;points=[];autosize=1;strokeColor=none;fillColor=none;" vertex="1" parent="1">
          <mxGeometry x="250" y="230" width="40" height="30" as="geometry" />
        </mxCell>
        <mxCell id="aR87jSdfgTAc_3G9qlga-63" value="Ne" style="text;html=1;align=center;verticalAlign=middle;resizable=0;points=[];autosize=1;strokeColor=none;fillColor=none;" vertex="1" parent="1">
          <mxGeometry x="145" y="478" width="40" height="30" as="geometry" />
        </mxCell>
        <mxCell id="aR87jSdfgTAc_3G9qlga-65" value="SamazinatPlatumu" style="rounded=1;whiteSpace=wrap;html=1;" vertex="1" parent="1">
          <mxGeometry x="305" y="633" width="120" height="60" as="geometry" />
        </mxCell>
        <mxCell id="aR87jSdfgTAc_3G9qlga-66" value="PalielinatPlatumu" style="rounded=1;whiteSpace=wrap;html=1;" vertex="1" parent="1">
          <mxGeometry x="65" y="670" width="120" height="60" as="geometry" />
        </mxCell>
        <mxCell id="aR87jSdfgTAc_3G9qlga-68" value="Ja" style="text;html=1;align=center;verticalAlign=middle;resizable=0;points=[];autosize=1;strokeColor=none;fillColor=none;" vertex="1" parent="1">
          <mxGeometry x="335" y="478" width="40" height="30" as="geometry" />
        </mxCell>
        <mxCell id="aR87jSdfgTAc_3G9qlga-69" value="Ja" style="text;html=1;align=center;verticalAlign=middle;resizable=0;points=[];autosize=1;strokeColor=none;fillColor=none;" vertex="1" parent="1">
          <mxGeometry x="125" y="608" width="40" height="30" as="geometry" />
        </mxCell>
        <mxCell id="aR87jSdfgTAc_3G9qlga-71" value="" style="endArrow=none;html=1;rounded=0;entryX=0.5;entryY=1;entryDx=0;entryDy=0;" edge="1" parent="1" target="aR87jSdfgTAc_3G9qlga-66">
          <mxGeometry width="50" height="50" relative="1" as="geometry">
            <mxPoint x="25" y="800" as="sourcePoint" />
            <mxPoint x="145" y="750" as="targetPoint" />
            <Array as="points">
              <mxPoint x="125" y="800" />
            </Array>
          </mxGeometry>
        </mxCell>
        <mxCell id="aR87jSdfgTAc_3G9qlga-72" value="" style="endArrow=none;html=1;rounded=0;entryX=0.5;entryY=1;entryDx=0;entryDy=0;" edge="1" parent="1" target="aR87jSdfgTAc_3G9qlga-65">
          <mxGeometry width="50" height="50" relative="1" as="geometry">
            <mxPoint x="125" y="800" as="sourcePoint" />
            <mxPoint x="385" y="700" as="targetPoint" />
            <Array as="points">
              <mxPoint x="365" y="800" />
            </Array>
          </mxGeometry>
        </mxCell>
        <mxCell id="aR87jSdfgTAc_3G9qlga-73" value="Ne" style="text;html=1;align=center;verticalAlign=middle;resizable=0;points=[];autosize=1;strokeColor=none;fillColor=none;" vertex="1" parent="1">
          <mxGeometry x="35" y="538" width="40" height="30" as="geometry" />
        </mxCell>
        <mxCell id="aR87jSdfgTAc_3G9qlga-74" value="" style="endArrow=classic;html=1;rounded=0;entryX=0.5;entryY=0;entryDx=0;entryDy=0;" edge="1" parent="1" target="aR87jSdfgTAc_3G9qlga-46">
          <mxGeometry width="50" height="50" relative="1" as="geometry">
            <mxPoint x="273" y="320" as="sourcePoint" />
            <mxPoint x="450" y="340" as="targetPoint" />
          </mxGeometry>
        </mxCell>
        <mxCell id="aR87jSdfgTAc_3G9qlga-77" style="edgeStyle=orthogonalEdgeStyle;rounded=0;orthogonalLoop=1;jettySize=auto;html=1;entryX=0.5;entryY=0;entryDx=0;entryDy=0;" edge="1" parent="1" source="aR87jSdfgTAc_3G9qlga-75" target="aR87jSdfgTAc_3G9qlga-53">
          <mxGeometry relative="1" as="geometry" />
        </mxCell>
        <mxCell id="aR87jSdfgTAc_3G9qlga-75" value="MuzikaOn" style="rounded=1;whiteSpace=wrap;html=1;" vertex="1" parent="1">
          <mxGeometry x="282.5" y="70" width="120" height="60" as="geometry" />
        </mxCell>
        <mxCell id="aR87jSdfgTAc_3G9qlga-93" style="edgeStyle=orthogonalEdgeStyle;rounded=0;orthogonalLoop=1;jettySize=auto;html=1;entryX=0.5;entryY=0;entryDx=0;entryDy=0;" edge="1" parent="1" source="aR87jSdfgTAc_3G9qlga-78" target="aR87jSdfgTAc_3G9qlga-84">
          <mxGeometry relative="1" as="geometry" />
        </mxCell>
        <mxCell id="aR87jSdfgTAc_3G9qlga-78" value="MainaAugstums" style="rounded=1;whiteSpace=wrap;html=1;" vertex="1" parent="1">
          <mxGeometry x="697.5" y="370" width="120" height="60" as="geometry" />
        </mxCell>
        <mxCell id="aR87jSdfgTAc_3G9qlga-80" style="edgeStyle=orthogonalEdgeStyle;rounded=0;orthogonalLoop=1;jettySize=auto;html=1;" edge="1" parent="1" source="aR87jSdfgTAc_3G9qlga-81">
          <mxGeometry relative="1" as="geometry">
            <mxPoint x="610" y="670" as="targetPoint" />
          </mxGeometry>
        </mxCell>
        <mxCell id="aR87jSdfgTAc_3G9qlga-81" value="AugstumsP==&lt;br style=&quot;border-color: var(--border-color);&quot;&gt;key(ArrowUp)" style="rhombus;whiteSpace=wrap;html=1;" vertex="1" parent="1">
          <mxGeometry x="540" y="540" width="140" height="80" as="geometry" />
        </mxCell>
        <mxCell id="aR87jSdfgTAc_3G9qlga-82" style="edgeStyle=orthogonalEdgeStyle;rounded=0;orthogonalLoop=1;jettySize=auto;html=1;entryX=0.5;entryY=0;entryDx=0;entryDy=0;" edge="1" parent="1" source="aR87jSdfgTAc_3G9qlga-84" target="aR87jSdfgTAc_3G9qlga-81">
          <mxGeometry relative="1" as="geometry" />
        </mxCell>
        <mxCell id="aR87jSdfgTAc_3G9qlga-83" style="edgeStyle=orthogonalEdgeStyle;rounded=0;orthogonalLoop=1;jettySize=auto;html=1;" edge="1" parent="1" source="aR87jSdfgTAc_3G9qlga-84">
          <mxGeometry relative="1" as="geometry">
            <mxPoint x="850" y="630" as="targetPoint" />
          </mxGeometry>
        </mxCell>
        <mxCell id="aR87jSdfgTAc_3G9qlga-84" value="AugstumsM==&lt;br&gt;key(ArrowDown)" style="rhombus;whiteSpace=wrap;html=1;" vertex="1" parent="1">
          <mxGeometry x="692.5" y="470" width="130" height="80" as="geometry" />
        </mxCell>
        <mxCell id="aR87jSdfgTAc_3G9qlga-85" value="Ne" style="text;html=1;align=center;verticalAlign=middle;resizable=0;points=[];autosize=1;strokeColor=none;fillColor=none;" vertex="1" parent="1">
          <mxGeometry x="630" y="478" width="40" height="30" as="geometry" />
        </mxCell>
        <mxCell id="aR87jSdfgTAc_3G9qlga-86" value="SamazinatAugstumu" style="rounded=1;whiteSpace=wrap;html=1;" vertex="1" parent="1">
          <mxGeometry x="790" y="633" width="120" height="60" as="geometry" />
        </mxCell>
        <mxCell id="aR87jSdfgTAc_3G9qlga-87" value="PalielinatAugstumu" style="rounded=1;whiteSpace=wrap;html=1;" vertex="1" parent="1">
          <mxGeometry x="550" y="670" width="120" height="60" as="geometry" />
        </mxCell>
        <mxCell id="aR87jSdfgTAc_3G9qlga-88" value="Ja" style="text;html=1;align=center;verticalAlign=middle;resizable=0;points=[];autosize=1;strokeColor=none;fillColor=none;" vertex="1" parent="1">
          <mxGeometry x="820" y="478" width="40" height="30" as="geometry" />
        </mxCell>
        <mxCell id="aR87jSdfgTAc_3G9qlga-89" value="Ja" style="text;html=1;align=center;verticalAlign=middle;resizable=0;points=[];autosize=1;strokeColor=none;fillColor=none;" vertex="1" parent="1">
          <mxGeometry x="610" y="630" width="40" height="30" as="geometry" />
        </mxCell>
        <mxCell id="aR87jSdfgTAc_3G9qlga-90" value="" style="endArrow=none;html=1;rounded=0;entryX=0.5;entryY=1;entryDx=0;entryDy=0;" edge="1" parent="1" target="aR87jSdfgTAc_3G9qlga-87">
          <mxGeometry width="50" height="50" relative="1" as="geometry">
            <mxPoint x="360" y="800" as="sourcePoint" />
            <mxPoint x="630" y="750" as="targetPoint" />
            <Array as="points">
              <mxPoint x="610" y="800" />
            </Array>
          </mxGeometry>
        </mxCell>
        <mxCell id="aR87jSdfgTAc_3G9qlga-91" value="" style="endArrow=none;html=1;rounded=0;entryX=0.5;entryY=1;entryDx=0;entryDy=0;" edge="1" parent="1" target="aR87jSdfgTAc_3G9qlga-86">
          <mxGeometry width="50" height="50" relative="1" as="geometry">
            <mxPoint x="610" y="800" as="sourcePoint" />
            <mxPoint x="870" y="700" as="targetPoint" />
            <Array as="points">
              <mxPoint x="850" y="800" />
            </Array>
          </mxGeometry>
        </mxCell>
        <mxCell id="aR87jSdfgTAc_3G9qlga-92" value="Ne" style="text;html=1;align=center;verticalAlign=middle;resizable=0;points=[];autosize=1;strokeColor=none;fillColor=none;" vertex="1" parent="1">
          <mxGeometry x="510" y="550" width="40" height="30" as="geometry" />
        </mxCell>
        <mxCell id="aR87jSdfgTAc_3G9qlga-96" value="" style="endArrow=none;html=1;rounded=0;entryX=0;entryY=0.5;entryDx=0;entryDy=0;" edge="1" parent="1" target="aR87jSdfgTAc_3G9qlga-81">
          <mxGeometry width="50" height="50" relative="1" as="geometry">
            <mxPoint x="500" y="800" as="sourcePoint" />
            <mxPoint x="520" y="580" as="targetPoint" />
            <Array as="points">
              <mxPoint x="500" y="680" />
              <mxPoint x="500" y="580" />
            </Array>
          </mxGeometry>
        </mxCell>
        <mxCell id="aR87jSdfgTAc_3G9qlga-97" value="" style="endArrow=classic;html=1;rounded=0;entryX=0.5;entryY=0;entryDx=0;entryDy=0;" edge="1" parent="1" target="aR87jSdfgTAc_3G9qlga-78">
          <mxGeometry width="50" height="50" relative="1" as="geometry">
            <mxPoint x="758" y="320" as="sourcePoint" />
            <mxPoint x="760" y="270" as="targetPoint" />
          </mxGeometry>
        </mxCell>
        <mxCell id="aR87jSdfgTAc_3G9qlga-132" value="" style="edgeStyle=orthogonalEdgeStyle;rounded=0;orthogonalLoop=1;jettySize=auto;html=1;" edge="1" parent="1" source="aR87jSdfgTAc_3G9qlga-98" target="aR87jSdfgTAc_3G9qlga-102">
          <mxGeometry relative="1" as="geometry" />
        </mxCell>
        <mxCell id="aR87jSdfgTAc_3G9qlga-98" value="Pozicija" style="rounded=1;whiteSpace=wrap;html=1;" vertex="1" parent="1">
          <mxGeometry x="1140" y="365" width="120" height="60" as="geometry" />
        </mxCell>
        <mxCell id="aR87jSdfgTAc_3G9qlga-131" style="edgeStyle=orthogonalEdgeStyle;rounded=0;orthogonalLoop=1;jettySize=auto;html=1;entryX=0.5;entryY=0;entryDx=0;entryDy=0;" edge="1" parent="1" source="aR87jSdfgTAc_3G9qlga-102" target="aR87jSdfgTAc_3G9qlga-103">
          <mxGeometry relative="1" as="geometry">
            <Array as="points">
              <mxPoint x="1090" y="520" />
            </Array>
          </mxGeometry>
        </mxCell>
        <mxCell id="aR87jSdfgTAc_3G9qlga-144" style="edgeStyle=orthogonalEdgeStyle;rounded=0;orthogonalLoop=1;jettySize=auto;html=1;entryX=0.5;entryY=0;entryDx=0;entryDy=0;" edge="1" parent="1" source="aR87jSdfgTAc_3G9qlga-102" target="aR87jSdfgTAc_3G9qlga-118">
          <mxGeometry relative="1" as="geometry">
            <Array as="points">
              <mxPoint x="1320" y="520" />
              <mxPoint x="1320" y="568" />
              <mxPoint x="1319" y="568" />
            </Array>
          </mxGeometry>
        </mxCell>
        <mxCell id="aR87jSdfgTAc_3G9qlga-102" value="PareizaPozicija==true" style="rhombus;whiteSpace=wrap;html=1;" vertex="1" parent="1">
          <mxGeometry x="1125" y="480" width="150" height="80" as="geometry" />
        </mxCell>
        <mxCell id="aR87jSdfgTAc_3G9qlga-137" style="edgeStyle=orthogonalEdgeStyle;rounded=0;orthogonalLoop=1;jettySize=auto;html=1;entryX=0.5;entryY=0;entryDx=0;entryDy=0;" edge="1" parent="1" source="aR87jSdfgTAc_3G9qlga-103" target="aR87jSdfgTAc_3G9qlga-108">
          <mxGeometry relative="1" as="geometry">
            <Array as="points">
              <mxPoint x="980" y="590" />
            </Array>
          </mxGeometry>
        </mxCell>
        <mxCell id="aR87jSdfgTAc_3G9qlga-103" value="PozicijaIzmers==true" style="rhombus;whiteSpace=wrap;html=1;" vertex="1" parent="1">
          <mxGeometry x="1020" y="550" width="140" height="80" as="geometry" />
        </mxCell>
        <mxCell id="aR87jSdfgTAc_3G9qlga-105" value="Ja" style="text;html=1;align=center;verticalAlign=middle;resizable=0;points=[];autosize=1;strokeColor=none;fillColor=none;" vertex="1" parent="1">
          <mxGeometry x="1085" y="480" width="40" height="30" as="geometry" />
        </mxCell>
        <mxCell id="aR87jSdfgTAc_3G9qlga-107" value="NovietotMasinu" style="rounded=1;whiteSpace=wrap;html=1;" vertex="1" parent="1">
          <mxGeometry x="920" y="760" width="120" height="60" as="geometry" />
        </mxCell>
        <mxCell id="aR87jSdfgTAc_3G9qlga-114" value="" style="edgeStyle=orthogonalEdgeStyle;rounded=0;orthogonalLoop=1;jettySize=auto;html=1;" edge="1" parent="1" source="aR87jSdfgTAc_3G9qlga-108" target="aR87jSdfgTAc_3G9qlga-107">
          <mxGeometry relative="1" as="geometry" />
        </mxCell>
        <mxCell id="aR87jSdfgTAc_3G9qlga-108" value="MasinasSkana" style="rounded=1;whiteSpace=wrap;html=1;" vertex="1" parent="1">
          <mxGeometry x="920" y="678" width="120" height="60" as="geometry" />
        </mxCell>
        <mxCell id="aR87jSdfgTAc_3G9qlga-116" value="" style="endArrow=none;html=1;rounded=0;exitX=0.5;exitY=1;exitDx=0;exitDy=0;" edge="1" parent="1" source="aR87jSdfgTAc_3G9qlga-107">
          <mxGeometry width="50" height="50" relative="1" as="geometry">
            <mxPoint x="800" y="850" as="sourcePoint" />
            <mxPoint x="850" y="800" as="targetPoint" />
            <Array as="points">
              <mxPoint x="980" y="930" />
              <mxPoint x="920" y="930" />
              <mxPoint x="850" y="930" />
            </Array>
          </mxGeometry>
        </mxCell>
        <mxCell id="aR87jSdfgTAc_3G9qlga-145" value="" style="edgeStyle=orthogonalEdgeStyle;rounded=0;orthogonalLoop=1;jettySize=auto;html=1;" edge="1" parent="1" source="aR87jSdfgTAc_3G9qlga-118" target="aR87jSdfgTAc_3G9qlga-122">
          <mxGeometry relative="1" as="geometry" />
        </mxCell>
        <mxCell id="aR87jSdfgTAc_3G9qlga-118" value="KludaMasinasSkana" style="rounded=1;whiteSpace=wrap;html=1;" vertex="1" parent="1">
          <mxGeometry x="1258.75" y="588" width="120" height="60" as="geometry" />
        </mxCell>
        <mxCell id="aR87jSdfgTAc_3G9qlga-122" value="NovietotMasinu&lt;br&gt;SakumaPozicija" style="rounded=1;whiteSpace=wrap;html=1;" vertex="1" parent="1">
          <mxGeometry x="1245" y="720" width="147.5" height="70" as="geometry" />
        </mxCell>
        <mxCell id="aR87jSdfgTAc_3G9qlga-128" value="Ne" style="text;html=1;align=center;verticalAlign=middle;resizable=0;points=[];autosize=1;strokeColor=none;fillColor=none;" vertex="1" parent="1">
          <mxGeometry x="1280" y="490" width="40" height="30" as="geometry" />
        </mxCell>
        <mxCell id="aR87jSdfgTAc_3G9qlga-133" value="" style="endArrow=classic;html=1;rounded=0;entryX=0.5;entryY=0;entryDx=0;entryDy=0;" edge="1" parent="1" target="aR87jSdfgTAc_3G9qlga-98">
          <mxGeometry width="50" height="50" relative="1" as="geometry">
            <mxPoint x="1200" y="320" as="sourcePoint" />
            <mxPoint x="1250" y="270" as="targetPoint" />
          </mxGeometry>
        </mxCell>
        <mxCell id="aR87jSdfgTAc_3G9qlga-134" value="Ne" style="text;html=1;align=center;verticalAlign=middle;resizable=0;points=[];autosize=1;strokeColor=none;fillColor=none;" vertex="1" parent="1">
          <mxGeometry x="1140" y="565" width="40" height="30" as="geometry" />
        </mxCell>
        <mxCell id="aR87jSdfgTAc_3G9qlga-135" value="Ja" style="text;html=1;align=center;verticalAlign=middle;resizable=0;points=[];autosize=1;strokeColor=none;fillColor=none;" vertex="1" parent="1">
          <mxGeometry x="990" y="560" width="40" height="30" as="geometry" />
        </mxCell>
        <mxCell id="aR87jSdfgTAc_3G9qlga-138" value="" style="ellipse;html=1;shape=endState;fillColor=#000000;strokeColor=#ff0000;" vertex="1" parent="1">
          <mxGeometry x="2075" y="648" width="30" height="30" as="geometry" />
        </mxCell>
        <mxCell id="aR87jSdfgTAc_3G9qlga-140" value="" style="edgeStyle=orthogonalEdgeStyle;rounded=0;orthogonalLoop=1;jettySize=auto;html=1;" edge="1" parent="1" source="aR87jSdfgTAc_3G9qlga-139" target="aR87jSdfgTAc_3G9qlga-138">
          <mxGeometry relative="1" as="geometry" />
        </mxCell>
        <mxCell id="aR87jSdfgTAc_3G9qlga-139" value="Apturesana Spēles Bērniem.exe" style="rounded=1;whiteSpace=wrap;html=1;" vertex="1" parent="1">
          <mxGeometry x="2030" y="520" width="120" height="60" as="geometry" />
        </mxCell>
        <mxCell id="aR87jSdfgTAc_3G9qlga-141" value="" style="endArrow=classic;html=1;rounded=0;entryX=0.5;entryY=0;entryDx=0;entryDy=0;" edge="1" parent="1" target="aR87jSdfgTAc_3G9qlga-139">
          <mxGeometry width="50" height="50" relative="1" as="geometry">
            <mxPoint x="2090" y="320" as="sourcePoint" />
            <mxPoint x="2150" y="270" as="targetPoint" />
          </mxGeometry>
        </mxCell>
        <mxCell id="aR87jSdfgTAc_3G9qlga-142" value="" style="endArrow=none;html=1;rounded=0;entryX=1;entryY=0.5;entryDx=0;entryDy=0;" edge="1" parent="1" target="aR87jSdfgTAc_3G9qlga-103">
          <mxGeometry width="50" height="50" relative="1" as="geometry">
            <mxPoint x="980" y="930" as="sourcePoint" />
            <mxPoint x="1180" y="750" as="targetPoint" />
            <Array as="points">
              <mxPoint x="1180" y="930" />
              <mxPoint x="1180" y="780" />
              <mxPoint x="1180" y="690" />
              <mxPoint x="1180" y="590" />
            </Array>
          </mxGeometry>
        </mxCell>
        <mxCell id="aR87jSdfgTAc_3G9qlga-146" value="" style="endArrow=none;html=1;rounded=0;" edge="1" parent="1">
          <mxGeometry width="50" height="50" relative="1" as="geometry">
            <mxPoint x="1180" y="930" as="sourcePoint" />
            <mxPoint x="1320" y="790" as="targetPoint" />
            <Array as="points">
              <mxPoint x="1320" y="930" />
            </Array>
          </mxGeometry>
        </mxCell>
        <mxCell id="aR87jSdfgTAc_3G9qlga-198" style="edgeStyle=orthogonalEdgeStyle;rounded=0;orthogonalLoop=1;jettySize=auto;html=1;entryX=0.5;entryY=0;entryDx=0;entryDy=0;" edge="1" parent="1" source="aR87jSdfgTAc_3G9qlga-148" target="aR87jSdfgTAc_3G9qlga-151">
          <mxGeometry relative="1" as="geometry">
            <Array as="points">
              <mxPoint x="1590" y="490" />
            </Array>
          </mxGeometry>
        </mxCell>
        <mxCell id="aR87jSdfgTAc_3G9qlga-148" value="PunktiSk==14" style="rhombus;whiteSpace=wrap;html=1;" vertex="1" parent="1">
          <mxGeometry x="1620" y="450" width="130" height="80" as="geometry" />
        </mxCell>
        <mxCell id="aR87jSdfgTAc_3G9qlga-156" style="edgeStyle=orthogonalEdgeStyle;rounded=0;orthogonalLoop=1;jettySize=auto;html=1;entryX=0.5;entryY=0;entryDx=0;entryDy=0;" edge="1" parent="1" source="aR87jSdfgTAc_3G9qlga-151" target="aR87jSdfgTAc_3G9qlga-155">
          <mxGeometry relative="1" as="geometry" />
        </mxCell>
        <mxCell id="aR87jSdfgTAc_3G9qlga-151" value="Atveras Uzvara Logs" style="rounded=1;whiteSpace=wrap;html=1;" vertex="1" parent="1">
          <mxGeometry x="1530" y="520" width="120" height="60" as="geometry" />
        </mxCell>
        <mxCell id="aR87jSdfgTAc_3G9qlga-159" style="edgeStyle=orthogonalEdgeStyle;rounded=0;orthogonalLoop=1;jettySize=auto;html=1;entryX=0.5;entryY=0;entryDx=0;entryDy=0;" edge="1" parent="1" source="aR87jSdfgTAc_3G9qlga-155" target="aR87jSdfgTAc_3G9qlga-158">
          <mxGeometry relative="1" as="geometry">
            <Array as="points">
              <mxPoint x="1600" y="670" />
            </Array>
          </mxGeometry>
        </mxCell>
        <mxCell id="aR87jSdfgTAc_3G9qlga-168" style="edgeStyle=orthogonalEdgeStyle;rounded=0;orthogonalLoop=1;jettySize=auto;html=1;entryX=0.5;entryY=0;entryDx=0;entryDy=0;" edge="1" parent="1" source="aR87jSdfgTAc_3G9qlga-155" target="aR87jSdfgTAc_3G9qlga-167">
          <mxGeometry relative="1" as="geometry" />
        </mxCell>
        <mxCell id="aR87jSdfgTAc_3G9qlga-155" value="LaiksSk&amp;lt;=100" style="rhombus;whiteSpace=wrap;html=1;" vertex="1" parent="1">
          <mxGeometry x="1650" y="630" width="90" height="77" as="geometry" />
        </mxCell>
        <mxCell id="aR87jSdfgTAc_3G9qlga-171" style="edgeStyle=orthogonalEdgeStyle;rounded=0;orthogonalLoop=1;jettySize=auto;html=1;entryX=0.5;entryY=0;entryDx=0;entryDy=0;" edge="1" parent="1" source="aR87jSdfgTAc_3G9qlga-157" target="aR87jSdfgTAc_3G9qlga-170">
          <mxGeometry relative="1" as="geometry">
            <Array as="points">
              <mxPoint x="1570" y="840" />
            </Array>
          </mxGeometry>
        </mxCell>
        <mxCell id="aR87jSdfgTAc_3G9qlga-157" value="LaiksSk&amp;gt;300" style="rhombus;whiteSpace=wrap;html=1;" vertex="1" parent="1">
          <mxGeometry x="1450" y="800" width="100" height="77" as="geometry" />
        </mxCell>
        <mxCell id="aR87jSdfgTAc_3G9qlga-160" style="edgeStyle=orthogonalEdgeStyle;rounded=0;orthogonalLoop=1;jettySize=auto;html=1;entryX=0.5;entryY=0;entryDx=0;entryDy=0;" edge="1" parent="1" source="aR87jSdfgTAc_3G9qlga-158" target="aR87jSdfgTAc_3G9qlga-157">
          <mxGeometry relative="1" as="geometry">
            <Array as="points">
              <mxPoint x="1500" y="760" />
            </Array>
          </mxGeometry>
        </mxCell>
        <mxCell id="aR87jSdfgTAc_3G9qlga-172" style="edgeStyle=orthogonalEdgeStyle;rounded=0;orthogonalLoop=1;jettySize=auto;html=1;entryX=0.5;entryY=0;entryDx=0;entryDy=0;" edge="1" parent="1" source="aR87jSdfgTAc_3G9qlga-158" target="aR87jSdfgTAc_3G9qlga-169">
          <mxGeometry relative="1" as="geometry" />
        </mxCell>
        <mxCell id="aR87jSdfgTAc_3G9qlga-158" value="LaiksSk&amp;lt;=200" style="rhombus;whiteSpace=wrap;html=1;" vertex="1" parent="1">
          <mxGeometry x="1550" y="720" width="100" height="77" as="geometry" />
        </mxCell>
        <mxCell id="aR87jSdfgTAc_3G9qlga-161" value="Ne" style="text;html=1;align=center;verticalAlign=middle;resizable=0;points=[];autosize=1;strokeColor=none;fillColor=none;" vertex="1" parent="1">
          <mxGeometry x="1520" y="730" width="40" height="30" as="geometry" />
        </mxCell>
        <mxCell id="aR87jSdfgTAc_3G9qlga-162" value="Ne" style="text;html=1;align=center;verticalAlign=middle;resizable=0;points=[];autosize=1;strokeColor=none;fillColor=none;" vertex="1" parent="1">
          <mxGeometry x="1600" y="638" width="40" height="30" as="geometry" />
        </mxCell>
        <mxCell id="aR87jSdfgTAc_3G9qlga-165" value="" style="endArrow=none;html=1;rounded=0;" edge="1" parent="1">
          <mxGeometry width="50" height="50" relative="1" as="geometry">
            <mxPoint x="1320" y="930" as="sourcePoint" />
            <mxPoint x="1450" y="840" as="targetPoint" />
            <Array as="points">
              <mxPoint x="1410" y="930" />
              <mxPoint x="1410" y="840" />
            </Array>
          </mxGeometry>
        </mxCell>
        <mxCell id="aR87jSdfgTAc_3G9qlga-166" value="Ne" style="text;html=1;align=center;verticalAlign=middle;resizable=0;points=[];autosize=1;strokeColor=none;fillColor=none;" vertex="1" parent="1">
          <mxGeometry x="1410" y="808" width="40" height="30" as="geometry" />
        </mxCell>
        <mxCell id="aR87jSdfgTAc_3G9qlga-167" value="Izvadas 3 zvaigznes un laiks" style="rounded=1;whiteSpace=wrap;html=1;" vertex="1" parent="1">
          <mxGeometry x="1760" y="728.5" width="120" height="60" as="geometry" />
        </mxCell>
        <mxCell id="aR87jSdfgTAc_3G9qlga-169" value="Izvadas 3 zvaigznes un laiks" style="rounded=1;whiteSpace=wrap;html=1;" vertex="1" parent="1">
          <mxGeometry x="1660" y="838" width="120" height="60" as="geometry" />
        </mxCell>
        <mxCell id="aR87jSdfgTAc_3G9qlga-170" value="Izvadas 3 zvaigznes un laiks" style="rounded=1;whiteSpace=wrap;html=1;" vertex="1" parent="1">
          <mxGeometry x="1510" y="920" width="120" height="60" as="geometry" />
        </mxCell>
        <mxCell id="aR87jSdfgTAc_3G9qlga-173" value="Ja" style="text;html=1;align=center;verticalAlign=middle;resizable=0;points=[];autosize=1;strokeColor=none;fillColor=none;" vertex="1" parent="1">
          <mxGeometry x="1660" y="728" width="40" height="30" as="geometry" />
        </mxCell>
        <mxCell id="aR87jSdfgTAc_3G9qlga-174" value="Ja" style="text;html=1;align=center;verticalAlign=middle;resizable=0;points=[];autosize=1;strokeColor=none;fillColor=none;" vertex="1" parent="1">
          <mxGeometry x="1540" y="810" width="40" height="30" as="geometry" />
        </mxCell>
        <mxCell id="aR87jSdfgTAc_3G9qlga-175" value="Ja" style="text;html=1;align=center;verticalAlign=middle;resizable=0;points=[];autosize=1;strokeColor=none;fillColor=none;" vertex="1" parent="1">
          <mxGeometry x="1760" y="633" width="40" height="30" as="geometry" />
        </mxCell>
        <mxCell id="aR87jSdfgTAc_3G9qlga-182" value="" style="endArrow=none;html=1;rounded=0;" edge="1" parent="1">
          <mxGeometry width="50" height="50" relative="1" as="geometry">
            <mxPoint x="1410" y="1030" as="sourcePoint" />
            <mxPoint x="1410" y="930" as="targetPoint" />
          </mxGeometry>
        </mxCell>
        <mxCell id="aR87jSdfgTAc_3G9qlga-183" value="" style="endArrow=none;html=1;rounded=0;exitX=0.5;exitY=0;exitDx=0;exitDy=0;" edge="1" parent="1" source="aR87jSdfgTAc_3G9qlga-186">
          <mxGeometry width="50" height="50" relative="1" as="geometry">
            <mxPoint x="1570" y="1080" as="sourcePoint" />
            <mxPoint x="1570" y="980" as="targetPoint" />
            <Array as="points">
              <mxPoint x="1720" y="1040" />
              <mxPoint x="1570" y="1040" />
            </Array>
          </mxGeometry>
        </mxCell>
        <mxCell id="aR87jSdfgTAc_3G9qlga-184" value="" style="endArrow=none;html=1;rounded=0;exitX=0.5;exitY=0;exitDx=0;exitDy=0;" edge="1" parent="1" source="aR87jSdfgTAc_3G9qlga-186">
          <mxGeometry width="50" height="50" relative="1" as="geometry">
            <mxPoint x="1720" y="1060" as="sourcePoint" />
            <mxPoint x="1720" y="900" as="targetPoint" />
          </mxGeometry>
        </mxCell>
        <mxCell id="aR87jSdfgTAc_3G9qlga-185" value="" style="endArrow=none;html=1;rounded=0;exitX=0.5;exitY=0;exitDx=0;exitDy=0;" edge="1" parent="1" source="aR87jSdfgTAc_3G9qlga-186">
          <mxGeometry width="50" height="50" relative="1" as="geometry">
            <mxPoint x="1830" y="1050" as="sourcePoint" />
            <mxPoint x="1830" y="790" as="targetPoint" />
            <Array as="points">
              <mxPoint x="1720" y="1040" />
              <mxPoint x="1830" y="1040" />
            </Array>
          </mxGeometry>
        </mxCell>
        <mxCell id="aR87jSdfgTAc_3G9qlga-186" value="Spelet vel viens reiz" style="rounded=1;whiteSpace=wrap;html=1;" vertex="1" parent="1">
          <mxGeometry x="1660" y="1070" width="120" height="60" as="geometry" />
        </mxCell>
        <mxCell id="aR87jSdfgTAc_3G9qlga-187" value="" style="endArrow=none;html=1;rounded=0;exitX=0.5;exitY=1;exitDx=0;exitDy=0;" edge="1" parent="1" source="aR87jSdfgTAc_3G9qlga-186">
          <mxGeometry width="50" height="50" relative="1" as="geometry">
            <mxPoint x="1360" y="1080" as="sourcePoint" />
            <mxPoint x="1410" y="1030" as="targetPoint" />
            <Array as="points">
              <mxPoint x="1720" y="1170" />
              <mxPoint x="1410" y="1170" />
            </Array>
          </mxGeometry>
        </mxCell>
        <mxCell id="aR87jSdfgTAc_3G9qlga-188" value="" style="endArrow=none;html=1;rounded=0;" edge="1" parent="1">
          <mxGeometry width="50" height="50" relative="1" as="geometry">
            <mxPoint x="1750" y="490" as="sourcePoint" />
            <mxPoint x="1720" y="1170" as="targetPoint" />
            <Array as="points">
              <mxPoint x="1930" y="490" />
              <mxPoint x="1930" y="1170" />
            </Array>
          </mxGeometry>
        </mxCell>
        <mxCell id="aR87jSdfgTAc_3G9qlga-189" value="Ne" style="text;html=1;align=center;verticalAlign=middle;resizable=0;points=[];autosize=1;strokeColor=none;fillColor=none;" vertex="1" parent="1">
          <mxGeometry x="1770" y="458" width="40" height="30" as="geometry" />
        </mxCell>
        <mxCell id="aR87jSdfgTAc_3G9qlga-190" value="Ja" style="text;html=1;align=center;verticalAlign=middle;resizable=0;points=[];autosize=1;strokeColor=none;fillColor=none;" vertex="1" parent="1">
          <mxGeometry x="1590" y="458" width="40" height="30" as="geometry" />
        </mxCell>
        <mxCell id="aR87jSdfgTAc_3G9qlga-192" value="PunktiSk++" style="rounded=1;whiteSpace=wrap;html=1;" vertex="1" parent="1">
          <mxGeometry x="920" y="838" width="120" height="60" as="geometry" />
        </mxCell>
        <mxCell id="aR87jSdfgTAc_3G9qlga-195" value="Uzvara" style="rounded=1;whiteSpace=wrap;html=1;" vertex="1" parent="1">
          <mxGeometry x="1625" y="360" width="120" height="60" as="geometry" />
        </mxCell>
        <mxCell id="aR87jSdfgTAc_3G9qlga-196" value="" style="endArrow=classic;html=1;rounded=0;entryX=0.476;entryY=-0.024;entryDx=0;entryDy=0;entryPerimeter=0;" edge="1" parent="1" target="aR87jSdfgTAc_3G9qlga-195">
          <mxGeometry width="50" height="50" relative="1" as="geometry">
            <mxPoint x="1682" y="320" as="sourcePoint" />
            <mxPoint x="1730" y="270" as="targetPoint" />
          </mxGeometry>
        </mxCell>
        <mxCell id="aR87jSdfgTAc_3G9qlga-201" value="" style="endArrow=classic;html=1;rounded=0;entryX=0.5;entryY=0;entryDx=0;entryDy=0;exitX=0.5;exitY=1;exitDx=0;exitDy=0;" edge="1" parent="1" source="aR87jSdfgTAc_3G9qlga-195" target="aR87jSdfgTAc_3G9qlga-148">
          <mxGeometry width="50" height="50" relative="1" as="geometry">
            <mxPoint x="1690" y="420" as="sourcePoint" />
            <mxPoint x="1740" y="370" as="targetPoint" />
          </mxGeometry>
        </mxCell>
      </root>
    </mxGraphModel>
  </diagram>
</mxfile>
